<svg width="150" height="150" viewBox="0 0 150 150" fill="none" xmlns="http://www.w3.org/2000/svg">
<g clip-path="url(#clip0_2_45)">
<rect width="150" height="150" rx="25" fill="white"/>
<path d="M110.744 122.617C109.518 119.743 109.322 119.326 108.571 117.873C106.436 113.73 104.326 113.812 104.326 113.812C104.326 113.812 104.282 113.799 104.187 113.793C104.174 113.793 104.155 113.793 104.143 113.793C103.618 113.774 101.831 113.957 96.986 116.37C91.9896 118.858 70.513 129.823 65.7881 132.343C59.7494 135.565 62.7498 136.645 63.0593 136.739C67.083 137.554 71.2457 137.984 75.5094 137.984C88.307 137.984 100.201 134.137 110.106 127.537C110.358 127.328 112.095 125.762 110.756 122.617H110.744Z" fill="url(#paint0_linear_2_45)"/>
<path d="M123.188 110.496C122.745 110.395 120.238 109.946 118.494 109.631C114.022 108.822 113.176 110.155 113.176 110.155L113.188 110.13C112.658 110.73 112.064 111.266 111.413 111.74L111.445 111.728C111.445 111.728 109.474 112.7 111.167 116.679C112.026 118.707 112.557 119.818 113.233 121.107C114.616 123.753 116.536 122.579 116.782 122.408C119.852 119.705 122.657 116.705 125.152 113.445C125.36 113.123 126.428 111.222 123.188 110.496Z" fill="url(#paint1_linear_2_45)"/>
<path d="M90.1514 65.7018C88.1617 60.7626 84.7507 60.7626 84.7507 60.7626C82.9883 60.7626 81.3523 60.2384 79.9753 59.3541V59.3668C79.9753 59.3668 77.4234 57.7435 72.9512 58.9246C70.0582 59.6889 55.5868 63.7312 53.7676 64.2618C49.4596 65.525 48.8469 67.9441 48.8469 67.9441V67.9251C47.8741 70.641 45.6191 72.7443 42.8082 73.5023H42.8271C42.8271 73.5023 39.233 74.2034 38.7971 78.6752C38.6455 80.2037 37.5338 90.2526 37.3759 91.6485C36.8895 95.9498 38.6266 96.8593 39.0877 97.0235C39.0877 97.0235 39.1003 97.0235 39.1066 97.0235C39.1635 97.0425 39.2014 97.0488 39.2014 97.0488H39.1888C41.4185 97.7941 43.2504 99.4047 44.2926 101.476V101.457C44.2926 101.457 45.2464 104.218 50.6029 104.218C53.1612 104.218 80.1711 103.883 84.0937 103.693C93.5434 103.226 94.6425 99.3416 94.6425 99.3416V99.3605C95.1289 97.9394 95.8932 96.6572 96.8786 95.5708L96.8534 95.5835C96.8534 95.5835 96.8913 95.5519 96.9607 95.4824C97.0176 95.4192 97.0744 95.3498 97.1376 95.2866C97.7882 94.5287 99.2284 92.217 97.9019 87.6946C97.125 85.0608 91.3452 68.6199 90.164 65.6892L90.1514 65.7018Z" fill="url(#paint2_linear_2_45)"/>
<path d="M46.1245 58.1225C46.1245 58.1225 46.1371 58.1351 46.1434 58.1414C46.156 58.154 46.1624 58.154 46.1624 58.154C46.6551 58.5646 47.0972 59.032 47.4888 59.5373V59.5183C47.4888 59.5183 48.8469 61.7037 52.8959 60.5668C55.9089 59.7141 69.9003 55.7855 71.7005 55.2676C75.5031 54.1622 75.8885 51.3642 75.8885 51.3642L75.9137 51.4147C75.9895 50.0694 76.3496 48.7998 76.9623 47.6756C76.9623 47.6629 78.2003 44.7386 75.5031 42.3069C74.3156 41.2331 70.5762 37.6834 69.0981 36.3697C66.2935 33.8811 63.8174 35.1696 63.8174 35.1696C62.7372 35.6307 61.5497 35.8897 60.299 35.877C60.1411 35.877 59.9895 35.8581 59.8379 35.8518L59.8568 35.8644C59.8568 35.8644 56.3132 35.4475 54.3677 38.833C53.2938 40.7026 48.1395 49.8673 46.415 53.0696C44.5453 56.5497 45.8781 57.914 46.1181 58.1225H46.1245Z" fill="url(#paint3_linear_2_45)"/>
<path d="M63.2173 129.11C70.1972 125.882 89.8672 116.13 93.2276 114.368C98.1546 111.784 96.1522 109.34 96.1522 109.34C96.1522 109.34 94.5478 107.243 89.305 107.439C86.7152 107.54 53.755 107.881 50.7166 107.925C46.1876 108.001 44.2168 109.826 43.5915 110.578C43.522 110.679 43.4462 110.78 43.3704 110.875C43.3704 110.887 43.3578 110.894 43.3578 110.894C42.4103 112.113 41.1533 113.079 39.7067 113.673H39.7131C39.7131 113.673 36.978 114.595 36.9211 117.69C36.9022 118.644 36.9022 118.745 36.9906 120.539C37.1675 124.265 38.9551 126.109 39.7257 126.735C42.7071 128.819 45.8781 130.651 49.207 132.198C49.9713 132.463 53.9129 133.411 63.211 129.11H63.2173Z" fill="url(#paint4_linear_2_45)"/>
<path d="M33.4344 119.913C33.4723 118.985 33.4912 118.498 33.447 116.875C33.3586 113.78 31.4636 112.82 31.4636 112.82H31.4699C30.4845 112.163 29.6318 111.323 28.9811 110.344C28.9811 110.344 28.2484 108.885 25.8923 109.643C24.0542 110.237 24.3258 111.247 24.4332 111.519C26.7703 114.829 29.4233 117.905 32.3479 120.696C32.7522 121.019 33.3712 121.278 33.4281 119.913H33.4344Z" fill="url(#paint5_linear_2_45)"/>
<path d="M24.7995 106.858C27.503 105.98 27.6546 103.889 27.6546 103.889V103.908C28.0273 101.881 29.0758 100.1 30.5539 98.7984H30.5224C30.5224 98.7984 32.7142 97.232 33.5038 91.4338C33.6428 90.4358 34.8682 80.1279 35.0135 78.4478C35.5062 72.7696 33.6238 70.5526 33.6238 70.5526C32.7837 69.5231 32.1836 68.3041 31.8678 66.9714V66.984C31.8678 66.984 31.8615 66.9587 31.8552 66.9145C31.8362 66.8324 31.8173 66.744 31.7983 66.6619C31.6025 65.9418 30.8319 64.2175 27.8504 63.4659C24.1805 62.5438 21.4896 62.0006 18.2239 61.6027C15.3372 61.249 14.2886 63.3585 14.0865 63.8512C13.3727 67.6219 13 71.5127 13 75.4982C13 86.7282 15.9625 97.2636 21.1485 106.365C21.4138 106.687 22.4307 107.628 24.7932 106.858H24.7995Z" fill="url(#paint6_linear_2_45)"/>
<path d="M19.2597 57.9709C21.7295 58.6657 25.9048 59.6952 28.5768 60.0994C32.4426 60.6868 34.2049 58.7225 34.2049 58.7225C35.1271 57.794 36.2641 57.074 37.5275 56.6192H37.5085C37.5085 56.6192 40.4963 55.7729 43.2819 51.3705C44.8295 48.9199 50.5966 39.2436 51.6262 37.3866C53.4517 34.1085 52.8706 32.0179 52.5232 31.2536C52.479 31.1715 52.4347 31.0831 52.3905 30.9947C52.3653 30.9505 52.3463 30.9189 52.3463 30.9189L52.3589 30.9315C51.7652 29.7441 51.4304 28.4177 51.4367 27.0155C51.4746 22.1268 55.4099 18.1477 60.299 18.1477C60.7222 18.1477 61.1391 18.1856 61.5496 18.2487L61.5307 18.2361C61.5307 18.2361 61.6128 18.255 61.7455 18.2803C61.7834 18.2866 61.8276 18.2929 61.8655 18.2992C62.6551 18.4129 64.6701 18.5014 66.1419 16.8086C66.5714 16.316 66.7103 16.1202 67.4431 15.1791C68.6369 13.6443 67.4747 13.5369 67.3167 13.5306C44.0841 16.5749 24.8689 32.3716 16.9289 53.6633C16.7899 54.3202 16.3604 57.1498 19.2597 57.9709Z" fill="url(#paint7_linear_2_45)"/>
<path d="M132.846 59.1773C131.557 61.7416 118.659 88.9326 117.446 91.4211C114.515 97.4341 115.361 99.3542 115.361 99.3542L115.342 99.3353C115.709 100.396 115.917 101.521 115.936 102.702V102.683C115.936 102.683 116.34 105.828 119.619 106.428C121.255 106.731 123.08 107.06 124.558 107.294C128.538 107.919 129.833 106.327 130.047 106.005C135.107 96.9793 138 86.5703 138 75.4918C138 69.2957 137.097 63.3206 135.417 57.6677C135.265 57.2887 134.526 55.836 132.846 59.1773Z" fill="url(#paint8_linear_2_45)"/>
<path d="M70.9426 15.697C70.0267 16.7265 69.7551 17.0676 69.275 17.7055C67.0452 20.6678 68.3338 23.2511 68.3338 23.2511L68.3149 23.2385C68.8581 24.388 69.1676 25.6638 69.1676 27.0155C69.1676 27.4324 69.1297 27.8366 69.0729 28.2345L69.0855 28.2156C69.0855 28.2156 68.2896 31.481 71.1005 34.1085C72.3575 35.2833 77.0571 39.5088 79.1353 41.1763C81.4156 43.008 84.0749 43.0585 84.0749 43.0585H84.0622C84.2896 43.0522 84.5234 43.0332 84.7571 43.0332C85.9256 43.0332 87.0374 43.2669 88.0607 43.6775C88.0607 43.6775 91.4843 44.9344 95.5712 41.1194C98.8495 38.0561 105.229 31.2663 107.882 28.285C111.053 24.7164 108.767 22.6195 108.482 22.3858C98.9 16.4423 87.6059 13 75.5032 13C75.4969 13 75.4842 13 75.4779 13C75.4779 13 75.4779 13 75.4842 13C75.4842 13 73.2924 13.0505 70.9363 15.697H70.9426Z" fill="url(#paint9_linear_2_45)"/>
<path d="M110.94 30.5968C106.865 34.7275 98.66 43.6775 96.9861 45.5913C94.0046 49.0083 93.6004 52.4569 93.6004 52.4569L93.5877 52.4443C93.5183 53.5559 93.2466 54.617 92.8045 55.5834H92.8171C92.8171 55.5834 91.7559 58.4383 93.2909 63.2259C94.0994 65.7524 101.155 85.604 102.311 88.4778C103.619 91.718 105.798 91.9833 106.082 92.0085C106.095 92.0085 106.101 92.0085 106.114 92.0085C107.105 92.1096 108.059 92.3559 108.956 92.7033L108.937 92.6844C108.937 92.6844 111.571 94.055 114.445 88.3515C116.789 83.7028 129.416 56.6066 130.647 53.6191C132.549 49.0146 130.205 45.2881 130.205 45.2881C130.224 45.3133 130.243 45.3386 130.262 45.3639C126.895 39.2625 122.55 33.7864 117.42 29.144C117.237 29.0177 114.344 27.1355 110.933 30.5968H110.94Z" fill="url(#paint10_linear_2_45)"/>
<path d="M104.995 110.9C109.419 110.9 113.005 107.314 113.005 102.891C113.005 98.4681 109.419 94.8824 104.995 94.8824C100.572 94.8824 96.986 98.4681 96.986 102.891C96.986 107.314 100.572 110.9 104.995 110.9Z" fill="#018FA4"/>
<path d="M40.4964 70.8874C43.7687 70.8874 46.4214 68.2349 46.4214 64.9628C46.4214 61.6908 43.7687 59.0383 40.4964 59.0383C37.2241 59.0383 34.5714 61.6908 34.5714 64.9628C34.5714 68.2349 37.2241 70.8874 40.4964 70.8874Z" fill="#018FA4"/>
<path d="M84.7507 57.8256C88.023 57.8256 90.6757 55.1731 90.6757 51.9011C90.6757 48.629 88.023 45.9765 84.7507 45.9765C81.4784 45.9765 78.8257 48.629 78.8257 51.9011C78.8257 55.1731 81.4784 57.8256 84.7507 57.8256Z" fill="#018FA4"/>
<path d="M36.3716 111.386C39.6439 111.386 42.2966 108.734 42.2966 105.462C42.2966 102.19 39.6439 99.5374 36.3716 99.5374C33.0993 99.5374 30.4466 102.19 30.4466 105.462C30.4466 108.734 33.0993 111.386 36.3716 111.386Z" fill="#018FA4"/>
<path d="M60.3053 32.94C63.5776 32.94 66.2303 30.2875 66.2303 27.0155C66.2303 23.7435 63.5776 21.091 60.3053 21.091C57.033 21.091 54.3803 23.7435 54.3803 27.0155C54.3803 30.2875 57.033 32.94 60.3053 32.94Z" fill="#018FA4"/>
</g>
<defs>
<linearGradient id="paint0_linear_2_45" x1="101.168" y1="109.485" x2="130.714" y2="66.3565" gradientUnits="userSpaceOnUse">
<stop stop-color="#0172A4"/>
<stop offset="1" stop-color="#002635"/>
</linearGradient>
<linearGradient id="paint1_linear_2_45" x1="114.212" y1="118.423" x2="143.758" y2="75.2939" gradientUnits="userSpaceOnUse">
<stop stop-color="#0172A4"/>
<stop offset="1" stop-color="#002635"/>
</linearGradient>
<linearGradient id="paint2_linear_2_45" x1="67.8473" y1="86.6588" x2="97.3997" y2="43.53" gradientUnits="userSpaceOnUse">
<stop stop-color="#0172A4"/>
<stop offset="1" stop-color="#002635"/>
</linearGradient>
<linearGradient id="paint3_linear_2_45" x1="46.7435" y1="72.1948" x2="76.2895" y2="29.0724" gradientUnits="userSpaceOnUse">
<stop stop-color="#0172A4"/>
<stop offset="1" stop-color="#002635"/>
</linearGradient>
<linearGradient id="paint4_linear_2_45" x1="79.7858" y1="94.8382" x2="109.332" y2="51.7094" gradientUnits="userSpaceOnUse">
<stop stop-color="#0172A4"/>
<stop offset="1" stop-color="#002635"/>
</linearGradient>
<linearGradient id="paint5_linear_2_45" x1="54.8478" y1="77.7467" x2="84.3938" y2="34.6242" gradientUnits="userSpaceOnUse">
<stop stop-color="#0172A4"/>
<stop offset="1" stop-color="#002635"/>
</linearGradient>
<linearGradient id="paint6_linear_2_45" x1="34.6787" y1="63.9333" x2="64.2311" y2="20.8109" gradientUnits="userSpaceOnUse">
<stop stop-color="#0172A4"/>
<stop offset="1" stop-color="#002635"/>
</linearGradient>
<linearGradient id="paint7_linear_2_45" x1="25.4879" y1="57.6361" x2="55.034" y2="14.5074" gradientUnits="userSpaceOnUse">
<stop stop-color="#0172A4"/>
<stop offset="1" stop-color="#002635"/>
</linearGradient>
<linearGradient id="paint8_linear_2_45" x1="109.19" y1="114.98" x2="138.736" y2="71.8578" gradientUnits="userSpaceOnUse">
<stop stop-color="#0172A4"/>
<stop offset="1" stop-color="#002635"/>
</linearGradient>
<linearGradient id="paint9_linear_2_45" x1="52.2959" y1="76.0034" x2="81.8419" y2="32.8747" gradientUnits="userSpaceOnUse">
<stop stop-color="#0172A4"/>
<stop offset="1" stop-color="#002635"/>
</linearGradient>
<linearGradient id="paint10_linear_2_45" x1="84.4539" y1="98.0341" x2="114.006" y2="54.9117" gradientUnits="userSpaceOnUse">
<stop stop-color="#0172A4"/>
<stop offset="1" stop-color="#002635"/>
</linearGradient>
<clipPath id="clip0_2_45">
<rect width="150" height="150" fill="white"/>
</clipPath>
</defs>
</svg>
